<?xml version="1.0" standalone="no"?>
<!DOCTYPE svg PUBLIC "-//W3C//DTD SVG 20010904//EN"
 "http://www.w3.org/TR/2001/REC-SVG-20010904/DTD/svg10.dtd">
<svg version="1.0" xmlns="http://www.w3.org/2000/svg"
 width="228.000000pt" height="228.000000pt" viewBox="0 0 228.000000 228.000000"
 preserveAspectRatio="xMidYMid meet">
<metadata>
Created by potrace 1.11, written by Peter Selinger 2001-2013
</metadata>
<g transform="translate(0.000000,228.000000) scale(0.100000,-0.100000)"
fill="#000000" stroke="none">
<path d="M774 2198 c5 -70 10 -145 21 -348 12 -214 14 -224 37 -240 12 -8 86
-60 163 -115 78 -55 178 -125 223 -155 45 -30 81 -58 82 -63 0 -6 -15 -25 -65
-81 -5 -6 -39 -47 -75 -91 -36 -44 -68 -81 -72 -83 -5 -2 -8 -7 -8 -11 0 -6
154 -119 195 -143 6 -4 24 0 40 7 17 8 101 48 189 89 87 42 160 76 161 76 1 0
94 44 206 98 112 54 224 107 248 118 l43 20 -88 65 c-90 65 -714 512 -782 560
-20 14 -140 100 -267 190 -126 91 -236 168 -243 173 -10 6 -12 -7 -8 -66z
m277 -281 c68 -48 151 -107 184 -131 33 -24 175 -125 315 -225 140 -100 262
-187 270 -194 8 -7 32 -23 53 -37 20 -14 37 -27 37 -30 0 -3 -15 -12 -32 -20
-43 -18 -424 -198 -507 -239 -36 -17 -71 -31 -78 -31 -24 0 -26 29 -4 52 11
13 61 72 110 132 l90 109 -37 26 c-20 15 -143 101 -272 191 -129 90 -238 166
-242 169 -4 3 -9 51 -13 106 -3 55 -8 126 -11 158 -2 32 -1 57 4 55 4 -1 64
-43 133 -91z"/>
<path d="M980 1409 c-8 -5 -69 -34 -135 -65 -66 -31 -156 -73 -200 -94 -44
-21 -177 -84 -295 -140 -118 -55 -218 -104 -222 -108 -6 -6 1346 -980 1374
-991 6 -2 7 27 3 80 -10 142 -15 220 -20 324 -7 127 -15 228 -21 236 -2 4
-109 80 -237 169 -127 90 -236 166 -241 171 -7 6 41 81 65 99 3 3 38 44 77 92
l71 87 -37 29 c-107 82 -168 119 -182 111z m14 -145 c9 -3 16 -11 16 -16 0 -8
-62 -92 -81 -108 -3 -3 -35 -42 -72 -86 l-67 -81 275 -193 c151 -105 277 -195
279 -198 2 -4 7 -52 10 -107 4 -55 9 -126 12 -159 l5 -58 -33 23 c-18 13 -71
51 -118 84 -47 34 -107 77 -135 97 -27 19 -167 119 -310 222 -143 103 -293
210 -332 238 -40 28 -73 52 -73 55 0 2 42 23 93 47 152 71 306 145 412 196 55
27 101 49 102 49 1 1 8 -2 17 -5z"/>
</g>
</svg>
